<svg xmlns="http://www.w3.org/2000/svg" width="1920" height="1260" viewBox="0 0 1920 1260">
  <defs>
    <style>
      .cls-1 {
        fill-rule: evenodd;
      }
    </style>
  </defs>
  <path id="Color_Fill_1" data-name="Color Fill 1" class="cls-1" d="M0,0H1920V800l-178,2c0.33-1,.67-2,1-3,24.14-18.022,28.74-78.659,9-105l-42-30c-37.27-14.059-68.32,9.9-97,18,0.63-22.461,7.41-47.909-4-63-17.98-2.922-40.41-6.738-61-10l-73-3-82-2c-38.98-5.911-94.72-6.022-134,0l-104,2-117,10c-16.79,53.963,9.05,141.273,13,187h-2l-30,2c-43.709,2.689-54.737-10.732-91-16l-74,18-24-6-53,1c-9.9-2.577-21.7-11.74-35-10-27.983,3.661-58.147,8.558-83,13l-49-7c-42.254-2.833-86.914,10.585-130,2l-32-9c-9.659-1.382-14.248,7.054-21,9l-49,4-67-9-24,6-25-6-44,6c-17.4,2.829-32.9-3.843-47-3-25.688,1.537-52.221,6.512-75,2-32.085-6.356-66.226,9.234-96,3V0ZM1684,693c55.64-.267,59.78,70.222,28,101-37.66,1.025-75.67,11.9-112,2-0.33-.667-0.67-1.333-1-2q3-14,6-28,10.005-8,20-16,3.495-14.5,7-29C1639.39,697.017,1660.6,701.7,1684,693Z"/>
</svg>
